<?xml version="1.0" encoding="UTF-8"?>
<svg id="_레이어_1" data-name="레이어_1" xmlns="http://www.w3.org/2000/svg" xmlns:xlink="http://www.w3.org/1999/xlink" version="1.1" viewBox="0 0 1024 1024">
  <!-- Generator: Adobe Illustrator 30.2.0, SVG Export Plug-In . SVG Version: 2.1.1 Build 105)  -->
  <defs>
    <style>
      .st0 {
        opacity: .31;
      }

      .st0, .st1, .st2, .st3, .st4 {
        isolation: isolate;
      }

      .st1 {
        fill: url(#_무제_그라디언트_2);
      }

      .st1, .st2, .st3 {
        opacity: .41;
      }

      .st2 {
        fill: url(#_무제_그라디언트_3);
      }

      .st3 {
        fill: url(#_무제_그라디언트_4);
      }

      .st5 {
        fill: #fff;
      }

      .st4 {
        fill: url(#_무제_그라디언트);
        opacity: .5;
      }
    </style>
    <radialGradient id="_무제_그라디언트" data-name="무제 그라디언트" cx="504.96" cy="512.95" fx="504.96" fy="512.95" r="242.63" gradientTransform="translate(0 1026) scale(1 -1)" gradientUnits="userSpaceOnUse">
      <stop offset="0" stop-color="#000" stop-opacity=".5"/>
      <stop offset=".99" stop-color="#000"/>
    </radialGradient>
    <radialGradient id="_무제_그라디언트_2" data-name="무제 그라디언트 2" cx="507.21" cy="535.81" fx="507.21" fy="535.81" r="239.29" gradientTransform="translate(0 1026) scale(1 -1)" gradientUnits="userSpaceOnUse">
      <stop offset="0" stop-color="#231815" stop-opacity="0"/>
      <stop offset=".99" stop-color="#000"/>
    </radialGradient>
    <radialGradient id="_무제_그라디언트_3" data-name="무제 그라디언트 3" cx="507.21" cy="535.81" fx="507.21" fy="535.81" r="239.29" gradientTransform="translate(0 1026) scale(1 -1)" gradientUnits="userSpaceOnUse">
      <stop offset=".04" stop-color="#000" stop-opacity="0"/>
      <stop offset=".99" stop-color="#000"/>
    </radialGradient>
    <radialGradient id="_무제_그라디언트_4" data-name="무제 그라디언트 4" cx="507.21" cy="535.66" fx="507.21" fy="535.66" r="227.64" gradientTransform="translate(0 1026) scale(1 -1)" gradientUnits="userSpaceOnUse">
      <stop offset="0" stop-color="#000" stop-opacity="0"/>
      <stop offset="1" stop-color="#000"/>
    </radialGradient>
  </defs>
  <g id="_레이어_5_사본">
    <path class="st5" d="M938.26,263.74L513.18,11,84.74,259.24v496.64l428.15,252.13,425-248.73.09-47.22-137.19-78.34.15-233.33,137.24-82.94.08-53.7Z"/>
  </g>
  <g id="_레이어_10">
    <polygon class="st4" points="336.45 393.43 323.12 401.16 323.12 418.04 497.19 519.91 497.19 722.32 512.33 731.09 524.91 723.68 524.91 521.9 698.28 419.28 698.28 401.78 684.48 393.55 512.82 496.69 336.45 393.43"/>
  </g>
  <g id="_레이어_2_사본_3">
    <g id="_레이어_8">
      <path class="st0" d="M512.82,260.07l-216.32,125.34v251.12l216.32,127.39,214.75-125.68v-250.48l-214.75-127.68ZM698.28,621.69l-185.86,109.34-189.3-108.42v-221.45l189.62-109.9,185.55,110.52v219.91h0Z"/>
    </g>
  </g>
  <g id="_레이어_2_사본_2">
    <polygon class="st1" points="484.77 569.81 484.77 526.47 450.02 504.99 450.02 532.17 412.14 554.17 412.14 483.13 383.64 465.95 383.85 570.6 323.12 605.88 323.12 622.61 336.4 630.22 398.57 594.12 484.77 645.57 484.77 612.37 425.96 578.2 463.47 556.42 484.77 569.81"/>
    <polygon class="st2" points="639.56 571.03 639.39 465.95 609.72 483.52 609.72 553.44 571.84 531.12 571.84 504.99 536.31 526.86 536.31 569.81 559.3 555.91 595.74 577.39 536.31 613.55 536.31 645.57 623.64 593.84 684.7 629.82 698.28 621.69 698.28 605.65 639.56 571.03"/>
    <polygon class="st3" points="595.2 447.2 624.46 429.62 524.91 368.97 524.91 298.52 512.74 291.26 497.19 300.27 497.19 370.5 398.48 429.75 426.95 446.42 497.19 404.66 497.19 447.74 473.84 461.27 511.05 482.74 548.02 461.27 524.91 446.34 524.91 404.59 595.2 447.2"/>
  </g>
  <g id="_레이어_5_사본1" data-name="_레이어_5_사본">
    <path d="M513.57,832.56l-277.94-160.12,1.53-324.41,275.76-156.89,272.59,167.63,108.5-66.51-380.08-225.98-383.08,221.96v444.06l382.83,225.43,380.01-222.4-107.36-62.97-272.74,160.21h0ZM823.65,735.29l-309.93,181.38-347.49-204.62v-403.42l347.45-201.31,310.28,184.48-37.66,25.63-272.47-167.55-311.99,177.51-1.72,365.45,313.61,180.67,272.58-160.11,37.33,21.89h.02Z"/>
  </g>
  <g id="_레이어_9">
    <polygon points="786.31 317.44 823.97 291.8 513.69 107.32 513.84 149.88 786.31 317.44"/>
    <polygon points="166.24 308.63 201.85 327.39 513.84 149.88 513.69 107.32 166.24 308.63"/>
    <polygon points="166.24 712.05 200.13 692.85 201.85 327.39 166.24 308.63 166.24 712.05"/>
    <polygon points="513.74 873.51 513.72 916.67 166.24 712.05 200.13 692.85 513.74 873.51"/>
    <polygon points="786.32 713.41 823.65 735.29 513.72 916.67 513.74 873.51 786.32 713.41"/>
  </g>
</svg>